<svg xmlns="http://www.w3.org/2000/svg" width="430" height="484" viewBox="0 0 430 484"><path fill="none" stroke="#639C00" stroke-width="2" stroke-miterlimit="10" d="M28 50v50"/><path fill="none" stroke="#639C00" stroke-miterlimit="10" d="M127.5 50v56m100-56v56m100-56v56m100-56v56"/><path fill="none" stroke="#639C00" stroke-miterlimit="10" d="M428 100H18" stroke-linecap="square"/><path fill="none" stroke="#639C00" stroke-miterlimit="10" d="M28 90h-5m5-10h-5m5-10h-5m5-10h-5m5 35h-2m2-10h-2m2-10h-2m2-10h-2m2-10h-2" stroke-linecap="round"/><path fill="none" stroke="#639C00" stroke-miterlimit="10" d="M28 49.5H18" stroke-linecap="square"/><text transform="translate(3 104)" font-family="sans-serif" font-size="10">0V</text><text transform="translate(3 53)" font-family="sans-serif" font-size="10">5V</text><text transform="translate(159 14)" font-family="sans-serif" font-size="12">Pulse Width Modulation</text><text transform="translate(195.305 43)" font-family="sans-serif" font-size="10">0% Duty Cycle</text><path fill="none" stroke="#639C00" stroke-width="2" stroke-miterlimit="10" d="M28 140v50"/><path fill="none" stroke="#639C00" stroke-miterlimit="10" d="M127.5 140v56m100-56v56m100-56v56m100-56v56"/><path fill="none" stroke="#639C00" stroke-miterlimit="10" d="M428 190H18" stroke-linecap="square"/><path fill="none" stroke="#639C00" stroke-miterlimit="10" d="M28 180h-5m5-10h-5m5-10h-5m5-10h-5m5 35h-2m2-10h-2m2-10h-2m2-10h-2m2-10h-2" stroke-linecap="round"/><path fill="none" stroke="#639C00" stroke-miterlimit="10" d="M28 139.5H18" stroke-linecap="square"/><text transform="translate(3 194)" font-family="sans-serif" font-size="10">0V</text><text transform="translate(3 143)" font-family="sans-serif" font-size="10">5V</text><text transform="translate(192.446 133)" font-family="sans-serif" font-size="10">25% Duty Cycle</text><path fill="none" stroke="#639C00" stroke-width="2" stroke-miterlimit="10" d="M28 230v50"/><path fill="none" stroke="#639C00" stroke-miterlimit="10" d="M127.5 230v56m100-56v56m100-56v56m100-56v56"/><path fill="none" stroke="#639C00" stroke-miterlimit="10" d="M428 280H18" stroke-linecap="square"/><path fill="none" stroke="#639C00" stroke-miterlimit="10" d="M28 270h-5m5-10h-5m5-10h-5m5-10h-5m5 35h-2m2-10h-2m2-10h-2m2-10h-2m2-10h-2" stroke-linecap="round"/><path fill="none" stroke="#639C00" stroke-miterlimit="10" d="M28 229.5H18" stroke-linecap="square"/><text transform="translate(3 284)" font-family="sans-serif" font-size="10">0V</text><text transform="translate(3 233)" font-family="sans-serif" font-size="10">5V</text><text transform="translate(192.446 223)" font-family="sans-serif" font-size="10">50% Duty Cycle</text><path fill="none" stroke="#639C00" stroke-width="2" stroke-miterlimit="10" d="M28 320v50"/><path fill="none" stroke="#639C00" stroke-miterlimit="10" d="M127.5 320v56m100-56v56m100-56v56m100-56v56"/><path fill="none" stroke="#639C00" stroke-miterlimit="10" d="M428 370H18" stroke-linecap="square"/><path fill="none" stroke="#639C00" stroke-miterlimit="10" d="M28 360h-5m5-10h-5m5-10h-5m5-10h-5m5 35h-2m2-10h-2m2-10h-2m2-10h-2m2-10h-2" stroke-linecap="round"/><path fill="none" stroke="#639C00" stroke-miterlimit="10" d="M28 319.5H18" stroke-linecap="square"/><text transform="translate(3 374)" font-family="sans-serif" font-size="10">0V</text><text transform="translate(3 323)" font-family="sans-serif" font-size="10">5V</text><text transform="translate(192.446 313)" font-family="sans-serif" font-size="10">75% Duty Cycle</text><path fill="none" stroke="#639C00" stroke-width="2" stroke-miterlimit="10" d="M28 410v50"/><path fill="none" stroke="#639C00" stroke-miterlimit="10" d="M127.5 410v50m100-50v50m100-50v50m100-50v50"/><path fill="none" stroke="#639C00" stroke-miterlimit="10" d="M428 460H18" stroke-linecap="square"/><path fill="none" stroke="#639C00" stroke-miterlimit="10" d="M28 450h-5m5-10h-5m5-10h-5m5-10h-5m5 35h-2m2-10h-2m2-10h-2m2-10h-2m2-10h-2" stroke-linecap="round"/><path fill="none" stroke="#639C00" stroke-miterlimit="10" d="M28 409.5H18" stroke-linecap="square"/><text transform="translate(3 464)" font-family="sans-serif" font-size="10">0V</text><text transform="translate(3 413)" font-family="sans-serif" font-size="10">5V</text><text transform="translate(189.587 403)" font-family="sans-serif" font-size="10">100% Duty Cycle</text><g fill="none" stroke="#000" stroke-width="4" stroke-miterlimit="10"><path d="M28 100h399M28 410h399M28 190v-50"/><path d="M53 190v-50m-25 0h25m0 50h75" stroke-linecap="square"/><path d="M28 280v-50"/><path d="M78 280v-50m-50 0h50m0 50h50m0 0v-50m50 50v-50m-50 0h50m0 50h50" stroke-linecap="square"/><path d="M28 370v-50"/><path d="M103 370v-50m-75 0h75m0 50h25m0 0v-50m75 50v-50m-75 0h75m0 50h25m0 0v-50m75 50v-50m-75 0h75m0 50h25m0 0v-50m75 50v-50m-75 0h75" stroke-linecap="square"/><path d="M403 370h25"/><path d="M128 190v-50m25 50v-50m-25 0h25m0 50h75m0 0v-50m25 50v-50m-25 0h25m0 50h75m0 0v-50m25 50v-50m-25 0h25" stroke-linecap="square"/><path d="M353 190h75"/><path d="M228 280v-50m50 50v-50m-50 0h50m0 50h50m0 0v-50m50 50v-50m-50 0h50" stroke-linecap="square"/><path d="M378 280h50"/></g></svg>